{
  "accessors": [
    {
      "bufferView": 2,
      "componentType": 5126,
      "count": 4,
      "max": [
        0.2559509873390198,
        -1.0167160034179688,
        0.6550819873809814
      ],
      "min": [
        0.04278872162103653,
        -1.2151240110397339,
        0.5997244119644165
      ],
      "type": "VEC3"
    },
    {
      "bufferView": 2,
      "byteOffset": 48,
      "componentType": 5126,
      "count": 4,
      "max": [
        0.002629621885716915,
        0.2661818861961365,
        -0.9639192819595337
      ],
      "min": [
        0.002629621885716915,
        0.2661818861961365,
        -0.9639192819595337
      ],
      "type": "VEC3"
    },
    {
      "bufferView": 1,
      "componentType": 5126,
      "count": 4,
      "max": [
        0.1116299033164978,
        -0.016307160258293152
      ],
      "min": [
        0.0843217521905899,
        -0.04397011175751686
      ],
      "type": "VEC2"
    },
    {
      "bufferView": 0,
      "componentType": 5125,
      "count": 6,
      "type": "SCALAR"
    },
    {
      "bufferView": 2,
      "byteOffset": 96,
      "componentType": 5126,
      "count": 672,
      "max": [
        1.9462900161743164,
        2.0707008838653564,
        1.1527049541473389
      ],
      "min": [
        -1.2856069803237915,
        -2.561037063598633,
        -1.0610109567642212
      ],
      "type": "VEC3"
    },
    {
      "bufferView": 2,
      "byteOffset": 8160,
      "componentType": 5126,
      "count": 672,
      "max": [
        0.9997370839118958,
        0.9989070296287537,
        1.0
      ],
      "min": [
        -0.9997370839118958,
        -0.999167799949646,
        -1.0
      ],
      "type": "VEC3"
    },
    {
      "bufferView": 1,
      "byteOffset": 32,
      "componentType": 5126,
      "count": 672,
      "max": [
        0.30072689056396484,
        0.23576439917087555
      ],
      "min": [
        -0.3007282018661499,
        -0.2010135054588318
      ],
      "type": "VEC2"
    },
    {
      "bufferView": 0,
      "byteOffset": 24,
      "componentType": 5125,
      "count": 1014,
      "type": "SCALAR"
    },
    {
      "bufferView": 2,
      "byteOffset": 16224,
      "componentType": 5126,
      "count": 24,
      "max": [
        2.578191041946411,
        0.18936499953269958,
        1.1832239627838135
      ],
      "min": [
        -1.2582390308380127,
        -1.119271993637085,
        -0.9299988746643066
      ],
      "type": "VEC3"
    },
    {
      "bufferView": 2,
      "byteOffset": 16512,
      "componentType": 5126,
      "count": 24,
      "max": [
        0.999987781047821,
        0.9841212034225464,
        0.6384456753730774
      ],
      "min": [
        -0.40408268570899963,
        0.003263029968366027,
        0.0025134491734206676
      ],
      "type": "VEC3"
    },
    {
      "bufferView": 1,
      "byteOffset": 5408,
      "componentType": 5126,
      "count": 24,
      "max": [
        0.2126690000295639,
        0.22622020542621613
      ],
      "min": [
        -0.27264219522476196,
        -0.038448769599199295
      ],
      "type": "VEC2"
    },
    {
      "bufferView": 0,
      "byteOffset": 4080,
      "componentType": 5125,
      "count": 36,
      "type": "SCALAR"
    },
    {
      "bufferView": 2,
      "byteOffset": 16800,
      "componentType": 5126,
      "count": 9672,
      "max": [
        2.827625036239624,
        2.9681429862976074,
        2.7262020111083984
      ],
      "min": [
        -2.319495916366577,
        -2.708928108215332,
        -2.1452629566192627
      ],
      "type": "VEC3"
    },
    {
      "bufferView": 2,
      "byteOffset": 132864,
      "componentType": 5126,
      "count": 9672,
      "max": [
        1.0,
        1.0,
        1.0
      ],
      "min": [
        -1.0,
        -1.0,
        -1.0
      ],
      "type": "VEC3"
    },
    {
      "bufferView": 1,
      "byteOffset": 5600,
      "componentType": 5126,
      "count": 9672,
      "max": [
        0.4146682918071747,
        0.32909709215164185
      ],
      "min": [
        -0.4121074080467224,
        -0.3997010886669159
      ],
      "type": "VEC2"
    },
    {
      "bufferView": 0,
      "byteOffset": 4224,
      "componentType": 5125,
      "count": 14328,
      "type": "SCALAR"
    },
    {
      "bufferView": 2,
      "byteOffset": 248928,
      "componentType": 5126,
      "count": 9718,
      "max": [
        3.3010220527648926,
        2.3727519512176514,
        2.5655739307403564
      ],
      "min": [
        -1.772102952003479,
        -1.9960789680480957,
        -1.3367799520492554
      ],
      "type": "VEC3"
    },
    {
      "bufferView": 2,
      "byteOffset": 365544,
      "componentType": 5126,
      "count": 9718,
      "max": [
        1.0,
        1.0,
        1.0
      ],
      "min": [
        -1.0,
        -1.0,
        -1.0
      ],
      "type": "VEC3"
    },
    {
      "bufferView": 1,
      "byteOffset": 82976,
      "componentType": 5126,
      "count": 9718,
      "max": [
        0.38149210810661316,
        0.3634811043739319
      ],
      "min": [
        -0.4371818006038666,
        -0.29997339844703674
      ],
      "type": "VEC2"
    },
    {
      "bufferView": 0,
      "byteOffset": 61536,
      "componentType": 5125,
      "count": 14904,
      "type": "SCALAR"
    },
    {
      "bufferView": 2,
      "byteOffset": 482160,
      "componentType": 5126,
      "count": 9938,
      "max": [
        3.2085490226745605,
        2.956382989883423,
        2.457904100418091
      ],
      "min": [
        -1.599943995475769,
        -1.4865620136260986,
        -1.9159660339355469
      ],
      "type": "VEC3"
    },
    {
      "bufferView": 2,
      "byteOffset": 601416,
      "componentType": 5126,
      "count": 9938,
      "max": [
        0.9998077750205994,
        0.9983888864517212,
        0.9998078942298889
      ],
      "min": [
        -0.9998077154159546,
        -0.9997572898864746,
        -0.9998078942298889
      ],
      "type": "VEC3"
    },
    {
      "bufferView": 1,
      "byteOffset": 160720,
      "componentType": 5126,
      "count": 9938,
      "max": [
        0.41733258962631226,
        0.3479680120944977
      ],
      "min": [
        -0.4190914034843445,
        -0.33746689558029175
      ],
      "type": "VEC2"
    },
    {
      "bufferView": 0,
      "byteOffset": 121152,
      "componentType": 5125,
      "count": 15078,
      "type": "SCALAR"
    },
    {
      "bufferView": 2,
      "byteOffset": 720672,
      "componentType": 5126,
      "count": 5461,
      "max": [
        2.096174955368042,
        2.2157180309295654,
        2.8106861114501953
      ],
      "min": [
        -1.7944660186767578,
        -2.1818559169769287,
        -1.4083280563354492
      ],
      "type": "VEC3"
    },
    {
      "bufferView": 2,
      "byteOffset": 786204,
      "componentType": 5126,
      "count": 5461,
      "max": [
        1.0,
        1.0,
        1.0
      ],
      "min": [
        -1.0,
        -1.0,
        -1.0
      ],
      "type": "VEC3"
    },
    {
      "bufferView": 1,
      "byteOffset": 240224,
      "componentType": 5126,
      "count": 5461,
      "max": [
        0.41465169191360474,
        0.36997660994529724
      ],
      "min": [
        -0.4130483865737915,
        -0.33948659896850586
      ],
      "type": "VEC2"
    },
    {
      "bufferView": 0,
      "byteOffset": 181464,
      "componentType": 5125,
      "count": 8832,
      "type": "SCALAR"
    },
    {
      "bufferView": 2,
      "byteOffset": 851736,
      "componentType": 5126,
      "count": 724,
      "max": [
        2.48022198677063,
        0.9625273942947388,
        0.21666529774665833
      ],
      "min": [
        -0.7858533263206482,
        -1.3152600526809692,
        -1.1779290437698364
      ],
      "type": "VEC3"
    },
    {
      "bufferView": 2,
      "byteOffset": 860424,
      "componentType": 5126,
      "count": 724,
      "max": [
        0.9986569285392761,
        0.9841211438179016,
        0.9999682307243347
      ],
      "min": [
        -0.9982698559761047,
        -0.9841212630271912,
        -0.9998193383216858
      ],
      "type": "VEC3"
    },
    {
      "bufferView": 1,
      "byteOffset": 283912,
      "componentType": 5126,
      "count": 724,
      "max": [
        0.21834319829940796,
        0.24494299292564392
      ],
      "min": [
        -0.23596270382404327,
        -0.12284059822559357
      ],
      "type": "VEC2"
    },
    {
      "bufferView": 0,
      "byteOffset": 216792,
      "componentType": 5125,
      "count": 1014,
      "type": "SCALAR"
    },
    {
      "bufferView": 2,
      "byteOffset": 869112,
      "componentType": 5126,
      "count": 8319,
      "max": [
        3.301021099090576,
        2.9953830242156982,
        2.7316699028015137
      ],
      "min": [
        -2.666253089904785,
        -3.0010719299316406,
        -2.067836046218872
      ],
      "type": "VEC3"
    },
    {
      "bufferView": 2,
      "byteOffset": 968940,
      "componentType": 5126,
      "count": 8319,
      "max": [
        1.0,
        1.0,
        1.0
      ],
      "min": [
        -1.0,
        -1.0,
        -1.0
      ],
      "type": "VEC3"
    },
    {
      "bufferView": 1,
      "byteOffset": 289704,
      "componentType": 5126,
      "count": 8319,
      "max": [
        0.4244599938392639,
        0.3891589045524597
      ],
      "min": [
        -0.43728139996528625,
        -0.3654923141002655
      ],
      "type": "VEC2"
    },
    {
      "bufferView": 0,
      "byteOffset": 220848,
      "componentType": 5125,
      "count": 12048,
      "type": "SCALAR"
    },
    {
      "bufferView": 2,
      "byteOffset": 1068768,
      "componentType": 5126,
      "count": 12,
      "max": [
        1.3668930530548096,
        1.1550099849700928,
        2.367314100265503
      ],
      "min": [
        -1.1020309925079346,
        -1.1222460269927979,
        1.1937309503555298
      ],
      "type": "VEC3"
    },
    {
      "bufferView": 2,
      "byteOffset": 1068912,
      "componentType": 5126,
      "count": 12,
      "max": [
        0.9061108827590942,
        0.9811317920684814,
        -0.1815934032201767
      ],
      "min": [
        -0.06636448204517365,
        -0.29840779304504395,
        -0.43993911147117615
      ],
      "type": "VEC3"
    },
    {
      "bufferView": 1,
      "byteOffset": 356256,
      "componentType": 5126,
      "count": 12,
      "max": [
        0.20905369520187378,
        0.3028348982334137
      ],
      "min": [
        -0.2108965963125229,
        0.11919750273227692
      ],
      "type": "VEC2"
    },
    {
      "bufferView": 0,
      "byteOffset": 269040,
      "componentType": 5125,
      "count": 18,
      "type": "SCALAR"
    },
    {
      "bufferView": 2,
      "byteOffset": 1069056,
      "componentType": 5126,
      "count": 726,
      "max": [
        2.0470468997955322,
        2.1551029682159424,
        1.4392989873886108
      ],
      "min": [
        -1.526142954826355,
        -2.141875982284546,
        -1.2170130014419556
      ],
      "type": "VEC3"
    },
    {
      "bufferView": 2,
      "byteOffset": 1077768,
      "componentType": 5126,
      "count": 726,
      "max": [
        1.0,
        1.0,
        1.0
      ],
      "min": [
        -1.0,
        -1.0,
        -1.0
      ],
      "type": "VEC3"
    },
    {
      "bufferView": 1,
      "byteOffset": 356352,
      "componentType": 5126,
      "count": 726,
      "max": [
        0.34365200996398926,
        0.2915478050708771
      ],
      "min": [
        -0.3503890037536621,
        -0.20849019289016724
      ],
      "type": "VEC2"
    },
    {
      "bufferView": 0,
      "byteOffset": 269112,
      "componentType": 5125,
      "count": 1134,
      "type": "SCALAR"
    },
    {
      "bufferView": 2,
      "byteOffset": 1086480,
      "componentType": 5126,
      "count": 48,
      "max": [
        2.044872999191284,
        1.0713419914245605,
        -0.6205555200576782
      ],
      "min": [
        1.3339120149612427,
        -0.8393862247467041,
        -1.0804870128631592
      ],
      "type": "VEC3"
    },
    {
      "bufferView": 2,
      "byteOffset": 1087056,
      "componentType": 5126,
      "count": 48,
      "max": [
        1.0,
        2.4043690700636944e-06,
        1.0
      ],
      "min": [
        6.310042977020203e-07,
        -1.0327229574613739e-05,
        -1.748561970771334e-07
      ],
      "type": "VEC3"
    },
    {
      "bufferView": 1,
      "byteOffset": 362160,
      "componentType": 5126,
      "count": 48,
      "max": [
        0.1415162980556488,
        0.17995980381965637
      ],
      "min": [
        -0.09958179295063019,
        -0.0611259788274765
      ],
      "type": "VEC2"
    },
    {
      "bufferView": 0,
      "byteOffset": 273648,
      "componentType": 5125,
      "count": 72,
      "type": "SCALAR"
    },
    {
      "bufferView": 2,
      "byteOffset": 1087632,
      "componentType": 5126,
      "count": 177,
      "max": [
        2.044872999191284,
        2.048919916152954,
        1.364109992980957
      ],
      "min": [
        -1.3263750076293945,
        -2.692333936691284,
        -1.0720030069351196
      ],
      "type": "VEC3"
    },
    {
      "bufferView": 2,
      "byteOffset": 1089756,
      "componentType": 5126,
      "count": 177,
      "max": [
        1.0,
        1.0,
        1.0
      ],
      "min": [
        -0.9995149970054626,
        -0.9999994039535522,
        -0.932100772857666
      ],
      "type": "VEC3"
    },
    {
      "bufferView": 1,
      "byteOffset": 362544,
      "componentType": 5126,
      "count": 177,
      "max": [
        0.2223511040210724,
        0.3052116930484772
      ],
      "min": [
        -0.25831669569015503,
        -0.16223010420799255
      ],
      "type": "VEC2"
    },
    {
      "bufferView": 0,
      "byteOffset": 273936,
      "componentType": 5125,
      "count": 249,
      "type": "SCALAR"
    }
  ],
  "asset": {
    "extras": {
      "author": "Nick Slough (https://sketchfab.com/BeholderDesign)",
      "license": "CC-BY-4.0 (http://creativecommons.org/licenses/by/4.0/)",
      "source": "https://sketchfab.com/3d-models/cyberpunk-bar-3a8d7b5f5a804c4a971d8ad628c4d1ed",
      "title": "Cyberpunk Bar"
    },
    "generator": "Sketchfab-12.67.0",
    "version": "2.0"
  },
  "bufferViews": [
    {
      "buffer": 0,
      "byteLength": 274932,
      "name": "floatBufferViews",
      "target": 34963
    },
    {
      "buffer": 0,
      "byteLength": 363960,
      "byteOffset": 274932,
      "byteStride": 8,
      "name": "floatBufferViews",
      "target": 34962
    },
    {
      "buffer": 0,
      "byteLength": 1091880,
      "byteOffset": 638892,
      "byteStride": 12,
      "name": "floatBufferViews",
      "target": 34962
    }
  ],
  "buffers": [
    {
      "byteLength": 1730772,
      "uri": "scene.bin"
    }
  ],
  "materials": [
    {
      "doubleSided": true,
      "emissiveFactor": [
        1.0,
        0.40638861427122774,
        0.0
      ],
      "name": "mat14",
      "pbrMetallicRoughness": {
        "baseColorFactor": [
          1.0,
          0.4773839434694307,
          0.024031858959787156,
          1.0
        ],
        "metallicFactor": 0.0
      }
    },
    {
      "doubleSided": true,
      "name": "mat15",
      "pbrMetallicRoughness": {
        "baseColorFactor": [
          0.051607123527053274,
          0.1411275020001768,
          0.21015150238975755,
          1.0
        ],
        "metallicFactor": 0.0
      }
    },
    {
      "doubleSided": true,
      "name": "mat16",
      "pbrMetallicRoughness": {
        "baseColorFactor": [
          0.3090369504725633,
          0.39758666509507584,
          0.4902455762524939,
          1.0
        ],
        "metallicFactor": 0.6053734756097561,
        "roughnessFactor": 0.4921875
      }
    },
    {
      "doubleSided": true,
      "name": "mat17",
      "pbrMetallicRoughness": {
        "baseColorFactor": [
          0.05828069995740882,
          0.07757892244526707,
          0.10659598738331715,
          1.0
        ],
        "metallicFactor": 0.23342225609756098,
        "roughnessFactor": 0.9738948170731707
      }
    },
    {
      "doubleSided": true,
      "name": "mat21",
      "pbrMetallicRoughness": {
        "metallicFactor": 0.0
      }
    },
    {
      "doubleSided": true,
      "emissiveFactor": [
        0.6622524129634412,
        1.0,
        1.0
      ],
      "name": "mat23",
      "pbrMetallicRoughness": {
        "baseColorFactor": [
          0.48951981707317077,
          0.48951981707317077,
          0.48951981707317077,
          1.0
        ],
        "metallicFactor": 0.33708079268292684
      }
    },
    {
      "alphaMode": "BLEND",
      "doubleSided": true,
      "emissiveFactor": [
        0.08067835365853658,
        0.11202393281914001,
        0.1391006097560976
      ],
      "name": "mat24",
      "pbrMetallicRoughness": {
        "baseColorFactor": [
          0.92,
          0.95,
          0.94,
          0.3336509146341463
        ],
        "metallicFactor": 0.9468368902439024,
        "roughnessFactor": 0.016577743902438935
      }
    },
    {
      "doubleSided": true,
      "emissiveFactor": [
        0.0,
        1.0,
        1.0
      ],
      "name": "mat3",
      "pbrMetallicRoughness": {
        "baseColorFactor": [
          0.5,
          0.8699999999999994,
          0.9199999999999997,
          1.0
        ],
        "metallicFactor": 0.2943978658536585
      }
    },
    {
      "alphaMode": "BLEND",
      "doubleSided": true,
      "emissiveFactor": [
        0.0,
        1.0,
        1.0
      ],
      "name": "mat4",
      "pbrMetallicRoughness": {
        "baseColorFactor": [
          0.0,
          0.7400000000000002,
          0.8299999999999997,
          0.9007240853658537
        ],
        "metallicFactor": 0.0
      }
    }
  ],
  "meshes": [
    {
      "name": "Object_0",
      "primitives": [
        {
          "attributes": {
            "NORMAL": 1,
            "POSITION": 0,
            "TEXCOORD_0": 2
          },
          "indices": 3,
          "material": 4,
          "mode": 4
        }
      ]
    },
    {
      "name": "Object_1",
      "primitives": [
        {
          "attributes": {
            "NORMAL": 5,
            "POSITION": 4,
            "TEXCOORD_0": 6
          },
          "indices": 7,
          "material": 0,
          "mode": 4
        }
      ]
    },
    {
      "name": "Object_2",
      "primitives": [
        {
          "attributes": {
            "NORMAL": 9,
            "POSITION": 8,
            "TEXCOORD_0": 10
          },
          "indices": 11,
          "material": 1,
          "mode": 4
        }
      ]
    },
    {
      "name": "Object_3",
      "primitives": [
        {
          "attributes": {
            "NORMAL": 13,
            "POSITION": 12,
            "TEXCOORD_0": 14
          },
          "indices": 15,
          "material": 2,
          "mode": 4
        }
      ]
    },
    {
      "name": "Object_4",
      "primitives": [
        {
          "attributes": {
            "NORMAL": 17,
            "POSITION": 16,
            "TEXCOORD_0": 18
          },
          "indices": 19,
          "material": 2,
          "mode": 4
        }
      ]
    },
    {
      "name": "Object_5",
      "primitives": [
        {
          "attributes": {
            "NORMAL": 21,
            "POSITION": 20,
            "TEXCOORD_0": 22
          },
          "indices": 23,
          "material": 2,
          "mode": 4
        }
      ]
    },
    {
      "name": "Object_6",
      "primitives": [
        {
          "attributes": {
            "NORMAL": 25,
            "POSITION": 24,
            "TEXCOORD_0": 26
          },
          "indices": 27,
          "material": 2,
          "mode": 4
        }
      ]
    },
    {
      "name": "Object_7",
      "primitives": [
        {
          "attributes": {
            "NORMAL": 29,
            "POSITION": 28,
            "TEXCOORD_0": 30
          },
          "indices": 31,
          "material": 3,
          "mode": 4
        }
      ]
    },
    {
      "name": "Object_8",
      "primitives": [
        {
          "attributes": {
            "NORMAL": 33,
            "POSITION": 32,
            "TEXCOORD_0": 34
          },
          "indices": 35,
          "material": 3,
          "mode": 4
        }
      ]
    },
    {
      "name": "Object_9",
      "primitives": [
        {
          "attributes": {
            "NORMAL": 37,
            "POSITION": 36,
            "TEXCOORD_0": 38
          },
          "indices": 39,
          "material": 5,
          "mode": 4
        }
      ]
    },
    {
      "name": "Object_10",
      "primitives": [
        {
          "attributes": {
            "NORMAL": 41,
            "POSITION": 40,
            "TEXCOORD_0": 42
          },
          "indices": 43,
          "material": 6,
          "mode": 4
        }
      ]
    },
    {
      "name": "Object_11",
      "primitives": [
        {
          "attributes": {
            "NORMAL": 45,
            "POSITION": 44,
            "TEXCOORD_0": 46
          },
          "indices": 47,
          "material": 7,
          "mode": 4
        }
      ]
    },
    {
      "name": "Object_12",
      "primitives": [
        {
          "attributes": {
            "NORMAL": 49,
            "POSITION": 48,
            "TEXCOORD_0": 50
          },
          "indices": 51,
          "material": 8,
          "mode": 4
        }
      ]
    }
  ],
  "nodes": [
    {
      "children": [
        1
      ],
      "matrix": [
        0.2408614605665207,
        0.0,
        0.0,
        0.0,
        0.0,
        5.3481987853159094e-17,
        -0.2408614605665207,
        0.0,
        0.0,
        0.2408614605665207,
        5.3481987853159094e-17,
        0.0,
        0.0,
        0.0,
        0.0,
        1.0
      ],
      "name": "Sketchfab_model"
    },
    {
      "children": [
        2,
        3,
        4,
        5,
        6,
        7,
        8,
        9,
        10,
        11,
        12,
        13,
        14
      ],
      "name": "model.obj.cleaner.materialmerger.gles"
    },
    {
      "mesh": 0,
      "name": "Object_2"
    },
    {
      "mesh": 1,
      "name": "Object_3"
    },
    {
      "mesh": 2,
      "name": "Object_4"
    },
    {
      "mesh": 3,
      "name": "Object_5"
    },
    {
      "mesh": 4,
      "name": "Object_6"
    },
    {
      "mesh": 5,
      "name": "Object_7"
    },
    {
      "mesh": 6,
      "name": "Object_8"
    },
    {
      "mesh": 7,
      "name": "Object_9"
    },
    {
      "mesh": 8,
      "name": "Object_10"
    },
    {
      "mesh": 9,
      "name": "Object_11"
    },
    {
      "mesh": 10,
      "name": "Object_12"
    },
    {
      "mesh": 11,
      "name": "Object_13"
    },
    {
      "mesh": 12,
      "name": "Object_14"
    }
  ],
  "scene": 0,
  "scenes": [
    {
      "name": "Sketchfab_Scene",
      "nodes": [
        0
      ]
    }
  ]
}
